<?xml version="1.0" encoding="utf-8"?>
<!-- Generator: Adobe Illustrator 16.0.0, SVG Export Plug-In . SVG Version: 6.00 Build 0)  -->
<!DOCTYPE svg PUBLIC "-//W3C//DTD SVG 1.1//EN" "http://www.w3.org/Graphics/SVG/1.1/DTD/svg11.dtd">
<svg version="1.1" id="Layer_1" xmlns="http://www.w3.org/2000/svg" xmlns:xlink="http://www.w3.org/1999/xlink" x="0px" y="0px"
	 width="700.747px" height="78.405px" viewBox="0 0 700.747 78.405" enable-background="new 0 0 700.747 78.405"
	 xml:space="preserve">
<g>
	<path fill="#FFFFFF" d="M9.301,39.652c0.15-0.85,0.45-1.3,0.85-1.3c0.4,0,0.7,0.25,1.35,1.55l13.65,27.802l13.601-28.152
		c0.4-0.8,0.65-1.2,1.1-1.2s0.75,0.5,0.9,1.55l4.55,30.603c0.45,3.149,0.95,4.6,2.45,5.05c1.45,0.45,2.45,0.5,3.1,0.5
		c0.45,0,0.8,0.05,0.8,0.351c0,0.399-0.6,0.549-1.3,0.549c-1.25,0-8.15-0.1-10.15-0.25c-1.15-0.1-1.45-0.25-1.45-0.549
		c0-0.251,0.2-0.4,0.55-0.551c0.3-0.1,0.45-0.75,0.25-2.15l-3-21.751h-0.2l-10.9,22.302c-1.15,2.35-1.4,2.8-1.85,2.8
		s-0.95-1-1.75-2.5c-1.2-2.3-5.15-9.95-5.75-11.351c-0.45-1.051-3.45-6.951-5.2-10.701h-0.2l-2.6,19.502
		c-0.1,0.899-0.15,1.549-0.15,2.35c0,0.95,0.65,1.4,1.5,1.6c0.9,0.2,1.6,0.25,2.1,0.25c0.4,0,0.75,0.101,0.75,0.351
		c0,0.45-0.45,0.55-1.2,0.55c-2.1,0-4.35-0.15-5.25-0.15c-0.95,0-3.351,0.15-4.951,0.15c-0.5,0-0.9-0.1-0.9-0.55
		c0-0.25,0.3-0.351,0.8-0.351c0.4,0,0.75,0,1.5-0.149c1.4-0.3,1.8-2.251,2.05-3.95L9.301,39.652z"/>
	<path fill="#FFFFFF" d="M54.051,60.753c0-7.25,5.1-16.65,18.451-16.65c11.101,0,18.001,6.15,18.001,15.9
		c0,9.752-7.101,17.402-18.451,17.402C59.251,77.405,54.051,68.304,54.051,60.753z M83.952,61.554c0-9.4-5.65-15.201-12.75-15.201
		c-4.9,0-10.651,2.601-10.651,13.102c0,8.75,5,15.65,13.301,15.65C76.952,75.104,83.952,73.654,83.952,61.554z"/>
	<path fill="#FFFFFF" d="M102.102,45.053c0.1-0.7,0.5-1.1,0.85-1.1c0.45,0,0.75,0.199,1.35,1.35l11.801,23.501l11.801-23.802
		c0.35-0.699,0.75-1.049,1.15-1.049c0.35,0,0.85,0.449,1,1.35l4,26.151c0.4,2.65,0.8,3.801,2.15,4.2c1.25,0.351,1.95,0.4,2.5,0.4
		c0.4,0,0.7,0.149,0.7,0.399c0,0.351-0.5,0.5-1.15,0.5c-1.1,0-7.351-0.149-9.101-0.25c-1.05-0.049-1.3-0.25-1.3-0.5
		c0-0.199,0.2-0.35,0.5-0.449c0.25-0.101,0.35-0.601,0.2-1.801l-2.45-18.351h-0.15l-9.451,18.801c-1,2.001-1.25,2.4-1.75,2.4
		c-0.55,0-1.05-0.851-1.75-2.15c-1.05-1.95-4.55-8.45-5.05-9.65c-0.35-0.8-2.95-5.95-4.4-8.9h-0.15l-2.1,16.401
		c-0.1,0.75-0.15,1.299-0.15,2c0,0.8,0.6,1.1,1.35,1.25c0.75,0.149,1.15,0.199,1.55,0.199c0.4,0,0.7,0.201,0.7,0.4
		c0,0.4-0.4,0.5-1.05,0.5c-1.85,0-3.85-0.15-4.65-0.15c-0.85,0-2.95,0.15-4.35,0.15c-0.45,0-0.8-0.1-0.8-0.5
		c0-0.199,0.25-0.4,0.7-0.4c0.35,0,0.65,0,1.35-0.1c1.2-0.15,1.6-1.85,1.8-3.25L102.102,45.053z"/>
	<path fill="#FFFFFF" d="M147.101,57.003c0-6.449,0-7.65-0.05-9c-0.1-1.45-0.5-1.9-1.9-2.3c-0.35-0.101-1.1-0.15-1.75-0.15
		c-0.45,0-0.75-0.15-0.75-0.45s0.35-0.399,1-0.399c2.3,0,5.101,0.1,6.351,0.1c1.4,0,11.151,0.05,12.001,0
		c0.8-0.051,1.5-0.2,1.85-0.25c0.25-0.051,0.5-0.2,0.7-0.2c0.25,0,0.3,0.2,0.3,0.399c0,0.301-0.25,0.801-0.35,2.751
		c-0.05,0.45-0.15,2.3-0.25,2.8c-0.05,0.2-0.15,0.7-0.5,0.7c-0.3,0-0.35-0.199-0.35-0.55c0-0.3-0.05-1.05-0.3-1.55
		c-0.35-0.751-0.7-1.351-2.9-1.55c-0.75-0.101-6-0.201-6.9-0.201c-0.2,0-0.3,0.15-0.3,0.4v10.501c0,0.25,0.05,0.449,0.3,0.449
		c1,0,6.7,0,7.7-0.1c1.05-0.1,1.65-0.25,2.1-0.65c0.35-0.299,0.5-0.549,0.7-0.549c0.2,0,0.35,0.199,0.35,0.449s-0.1,0.95-0.35,3.1
		c-0.1,0.851-0.2,2.551-0.2,2.852c0,0.35-0.05,0.949-0.45,0.949c-0.3,0-0.4-0.15-0.4-0.35c-0.05-0.45-0.05-1-0.15-1.551
		c-0.25-0.85-0.8-1.5-2.45-1.65c-0.8-0.1-5.801-0.199-6.901-0.199c-0.2,0-0.25,0.199-0.25,0.449v3.4c0,1.451-0.05,5.051,0,6.301
		c0.1,2.9,1.45,3.551,5.951,3.551c1.15,0,3-0.051,4.15-0.551c1.1-0.5,1.601-1.4,1.9-3.15c0.1-0.449,0.2-0.649,0.5-0.649
		c0.35,0,0.4,0.55,0.4,1c0,0.95-0.35,3.851-0.6,4.7c-0.3,1.1-0.7,1.1-2.35,1.1c-3.3,0-5.95-0.049-8.101-0.149
		c-2.15-0.05-3.8-0.101-5.1-0.101c-0.5,0-1.45,0.051-2.5,0.051c-1.05,0.05-2.15,0.1-3.05,0.1c-0.55,0-0.85-0.15-0.85-0.449
		c0-0.201,0.15-0.451,0.7-0.451c0.65,0,1.15-0.05,1.55-0.149c0.9-0.2,1.15-1,1.3-2.251c0.2-1.799,0.2-5.149,0.2-9.05V57.003z"/>
	<path fill="#FFFFFF" d="M178.151,71.054c0.1,3.301,0.65,4.301,1.5,4.601c0.75,0.25,1.6,0.3,2.3,0.3c0.5,0,0.75,0.201,0.75,0.451
		c0,0.35-0.4,0.449-1,0.449c-2.85,0-4.9-0.15-5.701-0.15c-0.4,0-2.5,0.15-4.75,0.15c-0.6,0-1-0.05-1-0.449
		c0-0.25,0.3-0.451,0.7-0.451c0.6,0,1.4-0.05,2-0.199c1.15-0.301,1.3-1.45,1.35-5.15l0.4-25.202c0-0.85,0.3-1.449,0.75-1.449
		c0.55,0,1.15,0.649,1.9,1.399c0.55,0.55,7.15,7.301,13.551,13.551c3,2.95,8.851,8.951,9.501,9.551h0.2l-0.45-18.901
		c-0.05-2.6-0.45-3.35-1.5-3.75c-0.65-0.25-1.7-0.25-2.3-0.25c-0.55,0-0.7-0.2-0.7-0.45c0-0.351,0.45-0.399,1.1-0.399
		c2.3,0,4.65,0.1,5.6,0.1c0.5,0,2.15-0.1,4.3-0.1c0.6,0,1,0.049,1,0.399c0,0.25-0.25,0.45-0.75,0.45c-0.45,0-0.8,0-1.35,0.15
		c-1.2,0.35-1.55,1.1-1.6,3.5l-0.5,26.802c0,0.949-0.35,1.35-0.7,1.35c-0.75,0-1.35-0.449-1.8-0.9c-2.75-2.55-8.25-7.8-12.851-12.25
		c-4.8-4.601-9.451-9.751-10.301-10.501h-0.15L178.151,71.054z"/>
	<path fill="#FFFFFF" d="M223.8,47.303l-6.55,0.15c-2.55,0.05-3.6,0.35-4.25,1.3c-0.45,0.6-0.65,1.15-0.75,1.45
		c-0.1,0.351-0.2,0.55-0.5,0.55c-0.3,0-0.4-0.25-0.4-0.7c0-0.7,0.85-4.801,0.95-5.15c0.1-0.55,0.25-0.8,0.5-0.8
		c0.35,0,0.8,0.351,1.9,0.5c1.3,0.149,2.95,0.2,4.4,0.2h17.851c1.4,0,2.35-0.1,3-0.2c0.7-0.101,1.05-0.2,1.2-0.2
		c0.3,0,0.35,0.25,0.35,0.9c0,0.9-0.1,4.05-0.1,5.15c-0.05,0.45-0.15,0.7-0.4,0.7c-0.35,0-0.45-0.2-0.5-0.851l-0.05-0.45
		c-0.1-1.1-1.25-2.399-5.2-2.45l-5.55-0.1v17.201c0,3.9,0.05,7.251,0.25,9.101c0.15,1.2,0.4,2,1.7,2.2c0.6,0.1,1.6,0.149,2.25,0.149
		c0.5,0,0.7,0.25,0.7,0.451c0,0.299-0.35,0.449-0.85,0.449c-2.9,0-5.851-0.15-7.101-0.15c-1,0-4,0.15-5.75,0.15
		c-0.55,0-0.85-0.15-0.85-0.449c0-0.201,0.15-0.451,0.7-0.451c0.65,0,1.2-0.05,1.55-0.149c0.9-0.2,1.15-1,1.3-2.251
		c0.2-1.799,0.2-5.149,0.2-9.05V47.303z"/>
	<path fill="#FFFFFF" d="M247.7,76.305c-0.7-0.3-0.85-0.5-0.85-1.45c0-2.301,0.2-4.95,0.25-5.65c0-0.65,0.2-1.1,0.55-1.1
		c0.4,0,0.45,0.399,0.45,0.699c0,0.551,0.15,1.451,0.4,2.201c0.95,3.149,4.25,4.199,7,4.199c3.8,0,6.101-2.4,6.101-5.4
		c0-1.85-0.45-3.699-4.35-6l-2.55-1.5c-5.2-3.051-6.9-5.9-6.9-9.65c0-5.2,5-8.551,11.101-8.551c2.85,0,5.1,0.399,6.25,0.7
		c0.4,0.1,0.6,0.25,0.6,0.55c0,0.55-0.15,1.75-0.15,5.101c0,0.899-0.2,1.351-0.55,1.351c-0.3,0-0.45-0.25-0.45-0.75
		c0-0.4-0.2-1.701-1.15-2.801c-0.65-0.8-2.05-2-4.9-2c-3.15,0-6,1.649-6,4.551c0,1.899,0.7,3.399,4.65,5.6l1.8,1
		c5.8,3.2,7.601,6.451,7.601,10.301c0,3.15-1.2,5.7-4.4,7.95c-2.1,1.501-5,1.751-7.351,1.751
		C252.3,77.405,249.6,77.155,247.7,76.305z"/>
	<path fill="#B0952A" d="M292.5,32.602c-4.201-5.601-5-9.701-5.101-14.201C287.3,10.5,294.3,0,311.702,0c4.9,0,9.4,1,12.101,2.1
		c1.7,0.6,1.7,1.4,1.7,2.6c0,3.3-0.8,11.301-1.1,12.801c-0.2,1.5-0.6,1.7-1.2,1.7s-0.7-0.4-0.7-1.9c0-2.6-0.7-5.8-2.9-8.4
		c-2-2.4-5.5-4.5-11.101-4.5c-4.201,0-10.701,2.9-10.701,11.4c0,9.401,8.601,17.401,16.601,26.302
		c3.4,3.9,15.701,15.001,17.602,16.701c2-2.801,4.8-9.301,4.8-15.401c0-1.5-0.4-3.3-1.9-4.6c-1.3-1.2-3.4-1.5-4.9-1.5
		c-0.6,0-1.2-0.2-1.2-0.8c0-0.8,0.8-1,1.6-1c2.4,0,6.4,0.1,12.001,0.7c1.9,0.2,3.4,0.8,3.4,2c0,7.7-4.101,17.001-9.801,23.701
		c6.7,5.5,11.201,8.201,13.901,9.801c3.2,1.9,8.701,3.5,10.701,3.5c0.899,0,1.399,0.101,1.399,0.9c0,0.6-0.799,0.9-3,0.9h-7.7
		c-11.4,0-15.001-1.101-23.601-7.701c-3.3,3-10.001,9.102-23.702,9.102c-21.401,0-27.802-13.401-27.802-22.102
		C276.199,44.603,286.5,35.502,292.5,32.602z M323.802,66.104c-5.8-5.001-15.401-14.401-18.001-17.201
		c-2.6-2.801-9-10.001-10.701-12.501c-3.4,2.5-6.9,7.2-6.9,15.2c0,12.502,8.8,20.502,19.201,20.502
		C315.102,72.104,321.702,68.104,323.802,66.104z"/>
	<path fill="#FFFFFF" d="M364.449,39.652c0.149-0.85,0.449-1.3,0.85-1.3s0.699,0.25,1.35,1.55L380.3,67.704L393.9,39.552
		c0.4-0.8,0.65-1.2,1.1-1.2c0.45,0,0.75,0.5,0.9,1.55l4.551,30.603c0.449,3.149,0.949,4.6,2.45,5.05c1.449,0.45,2.449,0.5,3.1,0.5
		c0.45,0,0.8,0.05,0.8,0.351c0,0.399-0.6,0.549-1.3,0.549c-1.25,0-8.15-0.1-10.15-0.25c-1.15-0.1-1.45-0.25-1.45-0.549
		c0-0.251,0.2-0.4,0.55-0.551c0.3-0.1,0.45-0.75,0.25-2.15l-3-21.751h-0.2l-10.9,22.302c-1.15,2.35-1.4,2.8-1.851,2.8
		c-0.449,0-0.949-1-1.75-2.5c-1.2-2.3-5.15-9.95-5.75-11.351c-0.45-1.051-3.45-6.951-5.2-10.701h-0.2l-2.601,19.502
		c-0.1,0.899-0.149,1.549-0.149,2.35c0,0.95,0.649,1.4,1.5,1.6c0.899,0.2,1.601,0.25,2.101,0.25c0.399,0,0.75,0.101,0.75,0.351
		c0,0.45-0.451,0.55-1.201,0.55c-2.1,0-4.35-0.15-5.25-0.15c-0.949,0-3.35,0.15-4.95,0.15c-0.5,0-0.899-0.1-0.899-0.55
		c0-0.25,0.3-0.351,0.8-0.351c0.399,0,0.75,0,1.5-0.149c1.399-0.3,1.8-2.251,2.05-3.95L364.449,39.652z"/>
	<path fill="#FFFFFF" d="M409.198,60.753c0-7.25,5.1-16.65,18.451-16.65c11.101,0,18.001,6.15,18.001,15.9
		c0,9.752-7.101,17.402-18.451,17.402C414.398,77.405,409.198,68.304,409.198,60.753z M439.1,61.554
		c0-9.4-5.65-15.201-12.751-15.201c-4.899,0-10.65,2.601-10.65,13.102c0,8.75,5,15.65,13.301,15.65
		C432.1,75.104,439.1,73.654,439.1,61.554z"/>
	<path fill="#FFFFFF" d="M457.099,71.054c0.101,3.301,0.65,4.301,1.501,4.601c0.75,0.25,1.6,0.3,2.3,0.3
		c0.5,0,0.75,0.201,0.75,0.451c0,0.35-0.4,0.449-1,0.449c-2.851,0-4.9-0.15-5.7-0.15c-0.4,0-2.5,0.15-4.751,0.15
		c-0.6,0-1-0.05-1-0.449c0-0.25,0.301-0.451,0.7-0.451c0.601,0,1.4-0.05,2-0.199c1.15-0.301,1.301-1.45,1.351-5.15l0.399-25.202
		c0-0.85,0.301-1.449,0.75-1.449c0.551,0,1.15,0.649,1.9,1.399c0.55,0.55,7.15,7.301,13.551,13.551c3,2.95,8.851,8.951,9.501,9.551
		h0.2l-0.45-18.901c-0.05-2.6-0.45-3.35-1.5-3.75c-0.65-0.25-1.7-0.25-2.301-0.25c-0.55,0-0.699-0.2-0.699-0.45
		c0-0.351,0.449-0.399,1.1-0.399c2.3,0,4.65,0.1,5.601,0.1c0.5,0,2.149-0.1,4.3-0.1c0.601,0,1,0.049,1,0.399
		c0,0.25-0.25,0.45-0.75,0.45c-0.45,0-0.8,0-1.35,0.15c-1.2,0.35-1.551,1.1-1.601,3.5l-0.5,26.802c0,0.949-0.35,1.35-0.7,1.35
		c-0.75,0-1.35-0.449-1.8-0.9c-2.75-2.55-8.25-7.8-12.851-12.25c-4.801-4.601-9.451-9.751-10.301-10.501h-0.15L457.099,71.054z"/>
	<path fill="#FFFFFF" d="M494.998,57.003c0-6.449,0.05-7.65-0.051-9c-0.1-1.5-0.5-1.9-1.899-2.3c-0.351-0.101-1.101-0.15-1.7-0.15
		c-0.5,0-0.75-0.15-0.75-0.45s0.3-0.399,0.95-0.399c2.35,0,5.3,0.1,6.6,0.1c1.101,0,4.051-0.1,5.65-0.1c0.65,0,0.95,0.1,0.95,0.399
		s-0.25,0.45-0.7,0.45c-0.5,0-0.75,0.05-1.3,0.15c-1.15,0.199-1.5,0.8-1.6,2.3c-0.101,1.35-0.101,2.551-0.101,9v5.951
		c0,6.2,1.2,8.6,3.351,10.301c1.95,1.55,4.05,1.699,5.55,1.699c1.9,0,4.15-0.55,5.9-2.25c2.45-2.3,2.551-6,2.551-10.351v-5.351
		c0-6.449-0.051-7.65-0.101-9c-0.1-1.45-0.45-1.9-1.85-2.3c-0.351-0.101-1.101-0.15-1.601-0.15s-0.75-0.15-0.75-0.45
		s0.3-0.399,0.9-0.399c2.25,0,5.2,0.1,5.25,0.1c0.5,0,3.45-0.1,5.15-0.1c0.6,0,0.9,0.1,0.9,0.399s-0.25,0.45-0.75,0.45
		s-0.75,0.05-1.301,0.15c-1.2,0.199-1.5,0.8-1.6,2.3c-0.05,1.35-0.101,2.551-0.101,9v4.551c0,4.75-0.5,9.75-4.2,12.801
		c-3.1,2.6-6.45,3.051-9.3,3.051c-2.301,0-6.851-0.101-10.051-2.9c-2.25-1.951-4-5.101-4-11.251V57.003z"/>
	<path fill="#FFFFFF" d="M536.248,45.053c0.1-0.7,0.5-1.1,0.85-1.1c0.45,0,0.75,0.199,1.351,1.35l11.801,23.501l11.801-23.802
		c0.35-0.699,0.75-1.049,1.149-1.049c0.351,0,0.851,0.449,1.001,1.35l4,26.151c0.399,2.65,0.8,3.801,2.149,4.2
		c1.251,0.351,1.95,0.4,2.501,0.4c0.399,0,0.699,0.149,0.699,0.399c0,0.351-0.5,0.5-1.149,0.5c-1.101,0-7.351-0.149-9.101-0.25
		c-1.05-0.049-1.3-0.25-1.3-0.5c0-0.199,0.199-0.35,0.5-0.449c0.25-0.101,0.35-0.601,0.199-1.801l-2.45-18.351H560.1l-9.451,18.801
		c-1,2.001-1.25,2.4-1.75,2.4c-0.55,0-1.05-0.851-1.75-2.15c-1.05-1.95-4.55-8.45-5.05-9.65c-0.351-0.8-2.95-5.95-4.4-8.9h-0.15
		l-2.1,16.401c-0.101,0.75-0.15,1.299-0.15,2c0,0.8,0.601,1.1,1.351,1.25c0.75,0.149,1.149,0.199,1.55,0.199s0.7,0.201,0.7,0.4
		c0,0.4-0.4,0.5-1.051,0.5c-1.85,0-3.85-0.15-4.649-0.15c-0.851,0-2.95,0.15-4.351,0.15c-0.45,0-0.8-0.1-0.8-0.5
		c0-0.199,0.25-0.4,0.699-0.4c0.351,0,0.65,0,1.351-0.1c1.2-0.15,1.6-1.85,1.8-3.25L536.248,45.053z"/>
	<path fill="#FFFFFF" d="M581.247,57.003c0-6.449,0-7.65-0.05-9c-0.1-1.45-0.5-1.9-1.9-2.3c-0.35-0.101-1.1-0.15-1.75-0.15
		c-0.45,0-0.75-0.15-0.75-0.45s0.351-0.399,1-0.399c2.301,0,5.101,0.1,6.351,0.1c1.4,0,11.15,0.05,12.001,0
		c0.8-0.051,1.5-0.2,1.85-0.25c0.25-0.051,0.5-0.2,0.7-0.2c0.25,0,0.3,0.2,0.3,0.399c0,0.301-0.25,0.801-0.35,2.751
		c-0.05,0.45-0.15,2.3-0.25,2.8c-0.05,0.2-0.15,0.7-0.5,0.7c-0.3,0-0.351-0.199-0.351-0.55c0-0.3-0.05-1.05-0.3-1.55
		c-0.35-0.751-0.7-1.351-2.9-1.55c-0.75-0.101-6-0.201-6.9-0.201c-0.199,0-0.3,0.15-0.3,0.4v10.501c0,0.25,0.05,0.449,0.3,0.449
		c1.001,0,6.701,0,7.701-0.1c1.05-0.1,1.649-0.25,2.1-0.65c0.351-0.299,0.5-0.549,0.7-0.549s0.351,0.199,0.351,0.449
		s-0.101,0.95-0.351,3.1c-0.1,0.851-0.2,2.551-0.2,2.852c0,0.35-0.05,0.949-0.45,0.949c-0.3,0-0.399-0.15-0.399-0.35
		c-0.05-0.45-0.05-1-0.15-1.551c-0.25-0.85-0.8-1.5-2.45-1.65c-0.8-0.1-5.8-0.199-6.9-0.199c-0.2,0-0.25,0.199-0.25,0.449v3.4
		c0,1.451-0.05,5.051,0,6.301c0.101,2.9,1.45,3.551,5.95,3.551c1.15,0,3.001-0.051,4.15-0.551c1.101-0.5,1.601-1.4,1.9-3.15
		c0.1-0.449,0.2-0.649,0.5-0.649c0.35,0,0.4,0.55,0.4,1c0,0.95-0.351,3.851-0.601,4.7c-0.3,1.1-0.7,1.1-2.35,1.1
		c-3.301,0-5.951-0.049-8.101-0.149c-2.15-0.05-3.801-0.101-5.101-0.101c-0.5,0-1.45,0.051-2.5,0.051c-1.05,0.05-2.15,0.1-3.051,0.1
		c-0.55,0-0.85-0.15-0.85-0.449c0-0.201,0.15-0.451,0.7-0.451c0.649,0,1.15-0.05,1.55-0.149c0.9-0.2,1.15-1,1.3-2.251
		c0.2-1.799,0.2-5.149,0.2-9.05V57.003z"/>
	<path fill="#FFFFFF" d="M612.297,71.054c0.101,3.301,0.65,4.301,1.501,4.601c0.75,0.25,1.6,0.3,2.3,0.3
		c0.5,0,0.75,0.201,0.75,0.451c0,0.35-0.4,0.449-1,0.449c-2.851,0-4.9-0.15-5.7-0.15c-0.4,0-2.5,0.15-4.751,0.15
		c-0.6,0-1-0.05-1-0.449c0-0.25,0.301-0.451,0.7-0.451c0.601,0,1.4-0.05,2-0.199c1.15-0.301,1.301-1.45,1.351-5.15l0.399-25.202
		c0-0.85,0.301-1.449,0.75-1.449c0.551,0,1.15,0.649,1.9,1.399c0.55,0.55,7.15,7.301,13.551,13.551c3,2.95,8.851,8.951,9.501,9.551
		h0.2l-0.45-18.901c-0.05-2.6-0.45-3.35-1.5-3.75c-0.65-0.25-1.7-0.25-2.301-0.25c-0.55,0-0.699-0.2-0.699-0.45
		c0-0.351,0.449-0.399,1.1-0.399c2.3,0,4.65,0.1,5.601,0.1c0.5,0,2.149-0.1,4.3-0.1c0.601,0,1,0.049,1,0.399
		c0,0.25-0.25,0.45-0.75,0.45c-0.45,0-0.8,0-1.35,0.15c-1.2,0.35-1.551,1.1-1.601,3.5l-0.5,26.802c0,0.949-0.35,1.35-0.7,1.35
		c-0.75,0-1.35-0.449-1.8-0.9c-2.75-2.55-8.25-7.8-12.851-12.25c-4.801-4.601-9.451-9.751-10.301-10.501h-0.15L612.297,71.054z"/>
	<path fill="#FFFFFF" d="M657.947,47.303l-6.551,0.15c-2.55,0.05-3.6,0.35-4.25,1.3c-0.45,0.6-0.649,1.15-0.75,1.45
		c-0.1,0.351-0.2,0.55-0.5,0.55s-0.4-0.25-0.4-0.7c0-0.7,0.851-4.801,0.95-5.15c0.101-0.55,0.25-0.8,0.5-0.8
		c0.351,0,0.801,0.351,1.9,0.5c1.3,0.149,2.95,0.2,4.4,0.2h17.851c1.4,0,2.351-0.1,3.001-0.2c0.699-0.101,1.05-0.2,1.199-0.2
		c0.301,0,0.351,0.25,0.351,0.9c0,0.9-0.1,4.05-0.1,5.15c-0.051,0.45-0.15,0.7-0.4,0.7c-0.351,0-0.45-0.2-0.5-0.851l-0.05-0.45
		c-0.101-1.1-1.25-2.399-5.2-2.45l-5.551-0.1v17.201c0,3.9,0.05,7.251,0.25,9.101c0.15,1.2,0.4,2,1.7,2.2
		c0.6,0.1,1.6,0.149,2.25,0.149c0.5,0,0.7,0.25,0.7,0.451c0,0.299-0.351,0.449-0.851,0.449c-2.899,0-5.85-0.15-7.1-0.15
		c-1,0-4.001,0.15-5.751,0.15c-0.55,0-0.85-0.15-0.85-0.449c0-0.201,0.149-0.451,0.7-0.451c0.649,0,1.199-0.05,1.55-0.149
		c0.9-0.2,1.15-1,1.3-2.251c0.2-1.799,0.2-5.149,0.2-9.05V47.303z"/>
	<path fill="#FFFFFF" d="M681.847,76.305c-0.7-0.3-0.851-0.5-0.851-1.45c0-2.301,0.2-4.95,0.25-5.65c0-0.65,0.2-1.1,0.55-1.1
		c0.4,0,0.45,0.399,0.45,0.699c0,0.551,0.15,1.451,0.4,2.201c0.95,3.149,4.25,4.199,7,4.199c3.801,0,6.101-2.4,6.101-5.4
		c0-1.85-0.45-3.699-4.351-6l-2.55-1.5c-5.2-3.051-6.9-5.9-6.9-9.65c0-5.2,5-8.551,11.101-8.551c2.851,0,5.101,0.399,6.25,0.7
		c0.4,0.1,0.601,0.25,0.601,0.55c0,0.55-0.15,1.75-0.15,5.101c0,0.899-0.2,1.351-0.55,1.351c-0.3,0-0.45-0.25-0.45-0.75
		c0-0.4-0.2-1.701-1.15-2.801c-0.649-0.8-2.05-2-4.899-2c-3.15,0-6.001,1.649-6.001,4.551c0,1.899,0.7,3.399,4.65,5.6l1.8,1
		c5.801,3.2,7.601,6.451,7.601,10.301c0,3.15-1.2,5.7-4.4,7.95c-2.1,1.501-5,1.751-7.35,1.751
		C686.446,77.405,683.746,77.155,681.847,76.305z"/>
</g>
</svg>
